<svg width="48" height="24" viewBox="0 0 48 24" fill="none" xmlns="http://www.w3.org/2000/svg">
<path d="M0 12C0 5.37258 5.37258 0 12 0H48V24H12C5.37258 24 0 18.6274 0 12Z" fill="#FFC000"/>
<path d="M28.005 14V12.05H23.169V11.062L27.823 4.9H29.539V10.62H30.683V12.05H29.539V14H28.005ZM28.005 10.62V6.876L25.21 10.62H28.005ZM33.6914 13.87C33.492 14.0607 33.245 14.156 32.9504 14.156C32.6557 14.156 32.4087 14.0607 32.2094 13.87C32.01 13.6707 31.9104 13.428 31.9104 13.142C31.9104 12.856 32.01 12.6177 32.2094 12.427C32.4087 12.2277 32.6557 12.128 32.9504 12.128C33.245 12.128 33.492 12.2277 33.6914 12.427C33.8907 12.6263 33.9904 12.8647 33.9904 13.142C33.9904 13.428 33.8907 13.6707 33.6914 13.87ZM35.2829 14C35.2829 11.8507 36.3575 10.204 38.5069 9.06C38.9489 8.826 39.2955 8.58767 39.5469 8.345C39.7982 8.09367 39.9239 7.79033 39.9239 7.435C39.9239 7.07967 39.7939 6.78933 39.5339 6.564C39.2825 6.33867 38.9489 6.226 38.5329 6.226C37.7182 6.226 37.1505 6.59867 36.8299 7.344L35.4259 6.707C35.6685 6.109 36.0672 5.63233 36.6219 5.277C37.1765 4.92167 37.8092 4.744 38.5199 4.744C39.4299 4.744 40.1535 4.99533 40.6909 5.498C41.2282 6.00067 41.4969 6.64633 41.4969 7.435C41.4969 8.14567 41.3149 8.709 40.9509 9.125C40.5955 9.53233 40.0409 9.944 39.2869 10.36C38.6542 10.7067 38.1689 11.0447 37.8309 11.374C37.4929 11.7033 37.2675 12.076 37.1549 12.492H41.5749V14H35.2829Z" fill="white"/>
<path d="M13.5 6L15.5085 9.94953L20 10.5868L16.75 13.6593L17.517 18L13.5 15.9495L9.483 18L10.25 13.6593L7 10.5868L11.4915 9.94953L13.5 6Z" fill="white"/>
</svg>
